<mxfile host="65bd71144e">
    <diagram id="C5RBs43oDa-KdzZeNtuy" name="Page-1">
        <mxGraphModel dx="986" dy="1737" grid="1" gridSize="10" guides="1" tooltips="1" connect="1" arrows="1" fold="1" page="1" pageScale="1" pageWidth="827" pageHeight="1169" math="0" shadow="0">
            <root>
                <mxCell id="WIyWlLk6GJQsqaUBKTNV-0"/>
                <mxCell id="WIyWlLk6GJQsqaUBKTNV-1" parent="WIyWlLk6GJQsqaUBKTNV-0"/>
                <mxCell id="TBOGh352oyX1296FKRRM-0" value="&lt;font color=&quot;#000000&quot;&gt;INICIO&lt;/font&gt;" style="rounded=1;whiteSpace=wrap;html=1;absoluteArcSize=1;arcSize=14;strokeWidth=2;fillColor=#cce5ff;strokeColor=#36393d;" parent="WIyWlLk6GJQsqaUBKTNV-1" vertex="1">
                    <mxGeometry x="50" y="70" width="100" height="60" as="geometry"/>
                </mxCell>
                <mxCell id="TBOGh352oyX1296FKRRM-2" value="&lt;div&gt;&lt;font color=&quot;#000000&quot;&gt;Es una ruta relativa?&lt;/font&gt;&lt;/div&gt;&lt;div&gt;&lt;font color=&quot;#000000&quot;&gt;(es directorio)&lt;/font&gt;&lt;/div&gt;" style="strokeWidth=2;html=1;shape=mxgraph.flowchart.decision;whiteSpace=wrap;fillColor=#d0cee2;strokeColor=#56517e;" parent="WIyWlLk6GJQsqaUBKTNV-1" vertex="1">
                    <mxGeometry x="418" y="177.5" width="130" height="105" as="geometry"/>
                </mxCell>
                <mxCell id="TBOGh352oyX1296FKRRM-3" value="&lt;div&gt;&lt;font color=&quot;#151414&quot;&gt;El path existe?&lt;/font&gt;&lt;/div&gt;" style="strokeWidth=2;html=1;shape=mxgraph.flowchart.decision;whiteSpace=wrap;fillColor=#d0cee2;strokeColor=#56517e;" parent="WIyWlLk6GJQsqaUBKTNV-1" vertex="1">
                    <mxGeometry x="230" y="177.5" width="123" height="105" as="geometry"/>
                </mxCell>
                <mxCell id="TBOGh352oyX1296FKRRM-5" value="&lt;font color=&quot;#0f0f0f&quot;&gt;NO&lt;/font&gt;" style="text;strokeColor=#ae4132;align=center;fillColor=#fad9d5;html=1;verticalAlign=middle;whiteSpace=wrap;rounded=0;strokeWidth=2;" parent="WIyWlLk6GJQsqaUBKTNV-1" vertex="1">
                    <mxGeometry x="548" y="191" width="30" height="30" as="geometry"/>
                </mxCell>
                <mxCell id="TBOGh352oyX1296FKRRM-6" value="" style="endArrow=classic;html=1;rounded=0;strokeWidth=2;endSize=4;exitX=1;exitY=0.5;exitDx=0;exitDy=0;exitPerimeter=0;entryX=0.107;entryY=0.364;entryDx=0;entryDy=0;entryPerimeter=0;" parent="WIyWlLk6GJQsqaUBKTNV-1" source="TBOGh352oyX1296FKRRM-2" edge="1" target="TBOGh352oyX1296FKRRM-12">
                    <mxGeometry width="50" height="50" relative="1" as="geometry">
                        <mxPoint x="699" y="278.8299999999999" as="sourcePoint"/>
                        <mxPoint x="590" y="230" as="targetPoint"/>
                    </mxGeometry>
                </mxCell>
                <mxCell id="TBOGh352oyX1296FKRRM-7" value="&lt;font color=&quot;#0d0d0d&quot;&gt;SI&lt;/font&gt;" style="text;strokeColor=#b46504;align=center;fillColor=#fad7ac;html=1;verticalAlign=middle;whiteSpace=wrap;rounded=0;strokeWidth=2;" parent="WIyWlLk6GJQsqaUBKTNV-1" vertex="1">
                    <mxGeometry x="450" y="130" width="27" height="30" as="geometry"/>
                </mxCell>
                <mxCell id="TBOGh352oyX1296FKRRM-8" value="" style="endArrow=classic;html=1;rounded=0;strokeWidth=2;endSize=4;exitX=0.5;exitY=0;exitDx=0;exitDy=0;exitPerimeter=0;entryX=0.5;entryY=1;entryDx=0;entryDy=0;" parent="WIyWlLk6GJQsqaUBKTNV-1" source="TBOGh352oyX1296FKRRM-2" target="TBOGh352oyX1296FKRRM-37" edge="1">
                    <mxGeometry width="50" height="50" relative="1" as="geometry">
                        <mxPoint x="639" y="189.75" as="sourcePoint"/>
                        <mxPoint x="488" y="110" as="targetPoint"/>
                        <Array as="points"/>
                    </mxGeometry>
                </mxCell>
                <mxCell id="TBOGh352oyX1296FKRRM-9" value="" style="endArrow=classic;html=1;rounded=0;strokeWidth=2;endSize=4;exitX=0.993;exitY=0.39;exitDx=0;exitDy=0;exitPerimeter=0;" parent="WIyWlLk6GJQsqaUBKTNV-1" source="TBOGh352oyX1296FKRRM-37" target="9" edge="1">
                    <mxGeometry width="50" height="50" relative="1" as="geometry">
                        <mxPoint x="827.4000000000001" y="138.38" as="sourcePoint"/>
                        <mxPoint x="650" y="86" as="targetPoint"/>
                        <Array as="points"/>
                    </mxGeometry>
                </mxCell>
                <mxCell id="TBOGh352oyX1296FKRRM-12" value="&lt;div&gt;&lt;font color=&quot;#000000&quot;&gt;Es un archivo&lt;/font&gt;&lt;/div&gt;&lt;div&gt;&lt;font color=&quot;#000000&quot;&gt;.md?&lt;/font&gt;&lt;br&gt;&lt;/div&gt;" style="strokeWidth=2;html=1;shape=mxgraph.flowchart.decision;whiteSpace=wrap;fillColor=#d0cee2;strokeColor=#56517e;" parent="WIyWlLk6GJQsqaUBKTNV-1" vertex="1">
                    <mxGeometry x="578" y="190" width="120" height="112.5" as="geometry"/>
                </mxCell>
                <mxCell id="TBOGh352oyX1296FKRRM-13" value="&lt;div&gt;El archivo&lt;/div&gt;&lt;div&gt;contiene&lt;/div&gt;&lt;div&gt;links?&lt;br&gt;&lt;/div&gt;" style="strokeWidth=2;html=1;shape=mxgraph.flowchart.decision;whiteSpace=wrap;fillColor=#D0CEE2;fontColor=#333333;strokeColor=#666666;" parent="WIyWlLk6GJQsqaUBKTNV-1" vertex="1">
                    <mxGeometry x="820" y="181.75" width="120" height="129" as="geometry"/>
                </mxCell>
                <mxCell id="TBOGh352oyX1296FKRRM-14" value="&lt;div style=&quot;font-size: 14px;&quot;&gt;&lt;font style=&quot;font-size: 14px;&quot; color=&quot;#000000&quot;&gt;&lt;b style=&quot;&quot;&gt;mensaje de error&lt;/b&gt;&lt;/font&gt;&lt;/div&gt;&lt;div style=&quot;font-size: 14px;&quot;&gt;&lt;font style=&quot;font-size: 14px;&quot; color=&quot;#000000&quot;&gt;&lt;b style=&quot;&quot;&gt;(FIN)&lt;/b&gt;&lt;/font&gt;&lt;br&gt;&lt;/div&gt;" style="rounded=0;whiteSpace=wrap;html=1;strokeColor=#6F0000;strokeWidth=2;fillColor=#a20025;fontColor=#ffffff;" parent="WIyWlLk6GJQsqaUBKTNV-1" vertex="1">
                    <mxGeometry x="423" y="418" width="120" height="60" as="geometry"/>
                </mxCell>
                <mxCell id="35" style="edgeStyle=none;html=1;fontSize=10;fontColor=#000000;entryX=0.855;entryY=0.673;entryDx=0;entryDy=0;entryPerimeter=0;" edge="1" parent="WIyWlLk6GJQsqaUBKTNV-1" target="TBOGh352oyX1296FKRRM-16">
                    <mxGeometry relative="1" as="geometry">
                        <mxPoint x="735" y="600" as="targetPoint"/>
                        <mxPoint x="800" y="760" as="sourcePoint"/>
                        <Array as="points">
                            <mxPoint x="800" y="560"/>
                        </Array>
                    </mxGeometry>
                </mxCell>
                <mxCell id="TBOGh352oyX1296FKRRM-16" value="&lt;div&gt;&lt;font color=&quot;#000000&quot;&gt;Los links son&lt;br&gt;&lt;/font&gt;&lt;/div&gt;&lt;div&gt;&lt;font color=&quot;#000000&quot;&gt;vÃ¡lidos?&lt;/font&gt;&lt;/div&gt;" style="strokeWidth=2;html=1;shape=mxgraph.flowchart.decision;whiteSpace=wrap;fillColor=#D0CEE2;fontColor=#333333;strokeColor=#666666;" parent="WIyWlLk6GJQsqaUBKTNV-1" vertex="1">
                    <mxGeometry x="627" y="505" width="113" height="85" as="geometry"/>
                </mxCell>
                <mxCell id="TBOGh352oyX1296FKRRM-17" value="" style="endArrow=classic;html=1;rounded=0;strokeWidth=2;endSize=4;entryX=0;entryY=0.5;entryDx=0;entryDy=0;exitX=0.99;exitY=0.498;exitDx=0;exitDy=0;exitPerimeter=0;entryPerimeter=0;" parent="WIyWlLk6GJQsqaUBKTNV-1" source="TBOGh352oyX1296FKRRM-3" target="TBOGh352oyX1296FKRRM-2" edge="1">
                    <mxGeometry width="50" height="50" relative="1" as="geometry">
                        <mxPoint x="563" y="279.75" as="sourcePoint"/>
                        <mxPoint x="615.72" y="279.9100000000001" as="targetPoint"/>
                    </mxGeometry>
                </mxCell>
                <mxCell id="TBOGh352oyX1296FKRRM-19" value="" style="endArrow=classic;html=1;rounded=0;strokeWidth=2;endSize=4;exitX=1;exitY=0.5;exitDx=0;exitDy=0;" parent="WIyWlLk6GJQsqaUBKTNV-1" edge="1">
                    <mxGeometry width="50" height="50" relative="1" as="geometry">
                        <mxPoint x="160" y="227.5" as="sourcePoint"/>
                        <mxPoint x="230" y="227.5" as="targetPoint"/>
                    </mxGeometry>
                </mxCell>
                <mxCell id="TBOGh352oyX1296FKRRM-20" value="" style="endArrow=classic;html=1;rounded=0;strokeWidth=2;endSize=4;exitX=0.5;exitY=1;exitDx=0;exitDy=0;" parent="WIyWlLk6GJQsqaUBKTNV-1" source="TBOGh352oyX1296FKRRM-0" edge="1">
                    <mxGeometry width="50" height="50" relative="1" as="geometry">
                        <mxPoint x="79.99999999999994" y="230" as="sourcePoint"/>
                        <mxPoint x="100" y="200" as="targetPoint"/>
                        <Array as="points">
                            <mxPoint x="100" y="190"/>
                        </Array>
                    </mxGeometry>
                </mxCell>
                <mxCell id="TBOGh352oyX1296FKRRM-21" value="" style="endArrow=classic;html=1;rounded=0;strokeWidth=2;endSize=4;exitX=1;exitY=0.5;exitDx=0;exitDy=0;exitPerimeter=0;" parent="WIyWlLk6GJQsqaUBKTNV-1" source="TBOGh352oyX1296FKRRM-12" edge="1">
                    <mxGeometry width="50" height="50" relative="1" as="geometry">
                        <mxPoint x="848.36" y="338.8" as="sourcePoint"/>
                        <mxPoint x="820" y="246" as="targetPoint"/>
                    </mxGeometry>
                </mxCell>
                <mxCell id="TBOGh352oyX1296FKRRM-22" value="" style="endArrow=classic;html=1;rounded=0;strokeWidth=2;endSize=4;exitX=0.5;exitY=0.996;exitDx=0;exitDy=0;exitPerimeter=0;" parent="WIyWlLk6GJQsqaUBKTNV-1" source="TBOGh352oyX1296FKRRM-13" edge="1">
                    <mxGeometry width="50" height="50" relative="1" as="geometry">
                        <mxPoint x="847.6599999999999" y="489" as="sourcePoint"/>
                        <mxPoint x="880" y="440" as="targetPoint"/>
                    </mxGeometry>
                </mxCell>
                <mxCell id="TBOGh352oyX1296FKRRM-23" value="" style="endArrow=classic;html=1;rounded=0;strokeWidth=2;endSize=4;entryX=1;entryY=0.5;entryDx=0;entryDy=0;entryPerimeter=0;exitX=-0.01;exitY=0.89;exitDx=0;exitDy=0;exitPerimeter=0;" parent="WIyWlLk6GJQsqaUBKTNV-1" target="TBOGh352oyX1296FKRRM-16" edge="1" source="TBOGh352oyX1296FKRRM-41">
                    <mxGeometry width="50" height="50" relative="1" as="geometry">
                        <mxPoint x="949" y="623" as="sourcePoint"/>
                        <mxPoint x="921.6599999999999" y="653" as="targetPoint"/>
                    </mxGeometry>
                </mxCell>
                <mxCell id="TBOGh352oyX1296FKRRM-25" value="&lt;font color=&quot;#080808&quot;&gt;SI&lt;/font&gt;" style="text;strokeColor=#d6b656;align=center;fillColor=#fff2cc;html=1;verticalAlign=middle;whiteSpace=wrap;rounded=0;strokeWidth=2;" parent="WIyWlLk6GJQsqaUBKTNV-1" vertex="1">
                    <mxGeometry x="360" y="200" width="29" height="30" as="geometry"/>
                </mxCell>
                <mxCell id="TBOGh352oyX1296FKRRM-26" value="" style="endArrow=classic;html=1;rounded=0;strokeWidth=2;endSize=4;exitX=0.5;exitY=1;exitDx=0;exitDy=0;exitPerimeter=0;entryX=0;entryY=0.5;entryDx=0;entryDy=0;" parent="WIyWlLk6GJQsqaUBKTNV-1" source="TBOGh352oyX1296FKRRM-3" target="TBOGh352oyX1296FKRRM-14" edge="1">
                    <mxGeometry width="50" height="50" relative="1" as="geometry">
                        <mxPoint x="510" y="430" as="sourcePoint"/>
                        <mxPoint x="542" y="351" as="targetPoint"/>
                        <Array as="points">
                            <mxPoint x="290" y="448"/>
                        </Array>
                    </mxGeometry>
                </mxCell>
                <mxCell id="TBOGh352oyX1296FKRRM-27" value="&lt;font color=&quot;#0d0d0d&quot;&gt;NO&lt;/font&gt;" style="text;strokeColor=#b85450;align=center;fillColor=#f8cecc;html=1;verticalAlign=middle;whiteSpace=wrap;rounded=0;strokeWidth=2;" parent="WIyWlLk6GJQsqaUBKTNV-1" vertex="1">
                    <mxGeometry x="300" y="340" width="29" height="30" as="geometry"/>
                </mxCell>
                <mxCell id="TBOGh352oyX1296FKRRM-28" value="&lt;font color=&quot;#000000&quot;&gt;NO&lt;/font&gt;" style="text;strokeColor=#b85450;align=center;fillColor=#f8cecc;html=1;verticalAlign=middle;whiteSpace=wrap;rounded=0;strokeWidth=2;" parent="WIyWlLk6GJQsqaUBKTNV-1" vertex="1">
                    <mxGeometry x="643" y="350" width="30" height="30" as="geometry"/>
                </mxCell>
                <mxCell id="TBOGh352oyX1296FKRRM-29" value="&lt;font color=&quot;#000000&quot;&gt;SI&lt;/font&gt;" style="text;strokeColor=#d6b656;align=center;fillColor=#fff2cc;html=1;verticalAlign=middle;whiteSpace=wrap;rounded=0;strokeWidth=2;" parent="WIyWlLk6GJQsqaUBKTNV-1" vertex="1">
                    <mxGeometry x="890" y="388" width="29" height="30" as="geometry"/>
                </mxCell>
                <mxCell id="TBOGh352oyX1296FKRRM-30" value="" style="endArrow=none;html=1;rounded=0;strokeWidth=2;endSize=6;entryX=0.257;entryY=0.779;entryDx=0;entryDy=0;entryPerimeter=0;" parent="WIyWlLk6GJQsqaUBKTNV-1" target="TBOGh352oyX1296FKRRM-13" edge="1">
                    <mxGeometry width="50" height="50" relative="1" as="geometry">
                        <mxPoint x="550" y="440" as="sourcePoint"/>
                        <mxPoint x="840" y="290" as="targetPoint"/>
                        <Array as="points">
                            <mxPoint x="640" y="440"/>
                        </Array>
                    </mxGeometry>
                </mxCell>
                <mxCell id="TBOGh352oyX1296FKRRM-31" value="&lt;font color=&quot;#0d0d0d&quot;&gt;NO&lt;/font&gt;" style="text;strokeColor=#b85450;align=center;fillColor=#f8cecc;html=1;verticalAlign=middle;whiteSpace=wrap;rounded=0;strokeWidth=2;" parent="WIyWlLk6GJQsqaUBKTNV-1" vertex="1">
                    <mxGeometry x="769" y="350" width="29" height="30" as="geometry"/>
                </mxCell>
                <mxCell id="TBOGh352oyX1296FKRRM-33" value="&lt;font color=&quot;#0d0d0d&quot;&gt;SI&lt;/font&gt;" style="text;strokeColor=#d6b656;align=center;fillColor=#fff2cc;html=1;verticalAlign=middle;whiteSpace=wrap;rounded=0;strokeWidth=2;" parent="WIyWlLk6GJQsqaUBKTNV-1" vertex="1">
                    <mxGeometry x="740" y="215" width="29" height="30" as="geometry"/>
                </mxCell>
                <mxCell id="TBOGh352oyX1296FKRRM-34" value="" style="endArrow=classic;html=1;rounded=0;strokeWidth=2;endSize=4;entryX=0.975;entryY=0.367;entryDx=0;entryDy=0;entryPerimeter=0;" parent="WIyWlLk6GJQsqaUBKTNV-1" edge="1" target="TBOGh352oyX1296FKRRM-14">
                    <mxGeometry width="50" height="50" relative="1" as="geometry">
                        <mxPoint x="640" y="302.5" as="sourcePoint"/>
                        <mxPoint x="570" y="410.5" as="targetPoint"/>
                        <Array as="points">
                            <mxPoint x="640" y="440"/>
                        </Array>
                    </mxGeometry>
                </mxCell>
                <mxCell id="TBOGh352oyX1296FKRRM-35" value="&lt;br&gt;&lt;span style=&quot;color: rgb(0, 0, 0); font-family: Helvetica; font-size: 12px; font-style: normal; font-variant-ligatures: normal; font-variant-caps: normal; font-weight: 400; letter-spacing: normal; orphans: 2; text-indent: 0px; text-transform: none; widows: 2; word-spacing: 0px; -webkit-text-stroke-width: 0px; text-decoration-thickness: initial; text-decoration-style: initial; text-decoration-color: initial; float: none; display: inline !important;&quot;&gt;Recibe la funcion mdLinks(path, options)&lt;/span&gt;&lt;br&gt;" style="rounded=1;whiteSpace=wrap;html=1;fillColor=#d0cee2;strokeColor=#56517e;strokeWidth=2;align=center;labelBackgroundColor=none;" parent="WIyWlLk6GJQsqaUBKTNV-1" vertex="1">
                    <mxGeometry x="40" y="200" width="130" height="50" as="geometry"/>
                </mxCell>
                <mxCell id="TBOGh352oyX1296FKRRM-37" value="&lt;div style=&quot;&quot;&gt;&lt;font color=&quot;#000000&quot; style=&quot;font-size: 12px;&quot;&gt;Lectura del directorio y se extraen archivos&lt;/font&gt;&lt;/div&gt;" style="rounded=1;whiteSpace=wrap;html=1;strokeColor=#56517e;strokeWidth=2;fillColor=#d0cee2;labelBackgroundColor=none;align=center;verticalAlign=bottom;" parent="WIyWlLk6GJQsqaUBKTNV-1" vertex="1">
                    <mxGeometry x="423" y="40" width="120" height="40" as="geometry"/>
                </mxCell>
                <mxCell id="TBOGh352oyX1296FKRRM-41" value="&#10;&lt;span style=&quot;color: rgb(0, 0, 0); font-family: Helvetica; font-size: 12px; font-style: normal; font-variant-ligatures: normal; font-variant-caps: normal; font-weight: 400; letter-spacing: normal; orphans: 2; text-align: center; text-indent: 0px; text-transform: none; widows: 2; word-spacing: 0px; -webkit-text-stroke-width: 0px; background-color: rgb(251, 251, 251); text-decoration-thickness: initial; text-decoration-style: initial; text-decoration-color: initial; float: none; display: inline !important;&quot;&gt;Traer los links&lt;/span&gt;&#10;&#10;" style="rounded=1;whiteSpace=wrap;html=1;strokeColor=#666666;strokeWidth=2;fillColor=#D0CEE2;fontColor=#333333;" parent="WIyWlLk6GJQsqaUBKTNV-1" vertex="1">
                    <mxGeometry x="820" y="438" width="120" height="42" as="geometry"/>
                </mxCell>
                <mxCell id="12" style="edgeStyle=none;html=1;exitX=0.5;exitY=0;exitDx=0;exitDy=0;exitPerimeter=0;fontSize=12;fontColor=#000000;" edge="1" parent="WIyWlLk6GJQsqaUBKTNV-1" source="9">
                    <mxGeometry relative="1" as="geometry">
                        <mxPoint x="710" y="-20" as="targetPoint"/>
                    </mxGeometry>
                </mxCell>
                <mxCell id="9" value="&lt;div&gt;&lt;font color=&quot;#000000&quot;&gt;Existen mas carpetas?&lt;/font&gt;&lt;/div&gt;" style="strokeWidth=2;html=1;shape=mxgraph.flowchart.decision;whiteSpace=wrap;fillColor=#d0cee2;strokeColor=#56517e;" vertex="1" parent="WIyWlLk6GJQsqaUBKTNV-1">
                    <mxGeometry x="650" y="-5" width="120" height="115" as="geometry"/>
                </mxCell>
                <mxCell id="13" value="&lt;font color=&quot;#0d0d0d&quot;&gt;SI&lt;/font&gt;" style="text;strokeColor=#b46504;align=center;fillColor=#fad7ac;html=1;verticalAlign=middle;whiteSpace=wrap;rounded=0;strokeWidth=2;" vertex="1" parent="WIyWlLk6GJQsqaUBKTNV-1">
                    <mxGeometry x="720" y="-30" width="27" height="30" as="geometry"/>
                </mxCell>
                <mxCell id="14" value="" style="endArrow=classic;html=1;rounded=0;strokeWidth=2;endSize=4;" edge="1" parent="WIyWlLk6GJQsqaUBKTNV-1">
                    <mxGeometry width="50" height="50" relative="1" as="geometry">
                        <mxPoint x="710" y="-20" as="sourcePoint"/>
                        <mxPoint x="480" y="-20" as="targetPoint"/>
                        <Array as="points"/>
                    </mxGeometry>
                </mxCell>
                <mxCell id="15" value="" style="endArrow=classic;html=1;rounded=0;strokeWidth=2;endSize=4;" edge="1" parent="WIyWlLk6GJQsqaUBKTNV-1">
                    <mxGeometry width="50" height="50" relative="1" as="geometry">
                        <mxPoint x="480" y="-20" as="sourcePoint"/>
                        <mxPoint x="480" y="40" as="targetPoint"/>
                        <Array as="points"/>
                    </mxGeometry>
                </mxCell>
                <mxCell id="16" value="" style="endArrow=classic;html=1;rounded=0;strokeWidth=2;endSize=4;exitX=0.5;exitY=1;exitDx=0;exitDy=0;exitPerimeter=0;" edge="1" parent="WIyWlLk6GJQsqaUBKTNV-1" source="9">
                    <mxGeometry width="50" height="50" relative="1" as="geometry">
                        <mxPoint x="710" y="130" as="sourcePoint"/>
                        <mxPoint x="710" y="150" as="targetPoint"/>
                    </mxGeometry>
                </mxCell>
                <mxCell id="17" value="&lt;font color=&quot;#0d0d0d&quot;&gt;NO&lt;/font&gt;" style="text;strokeColor=#b85450;align=center;fillColor=#f8cecc;html=1;verticalAlign=middle;whiteSpace=wrap;rounded=0;strokeWidth=2;" vertex="1" parent="WIyWlLk6GJQsqaUBKTNV-1">
                    <mxGeometry x="718" y="110" width="29" height="30" as="geometry"/>
                </mxCell>
                <mxCell id="18" value="&lt;div style=&quot;&quot;&gt;&lt;font color=&quot;#000000&quot; style=&quot;font-size: 12px;&quot;&gt;Juntamos los archivos extraidos&lt;/font&gt;&lt;/div&gt;" style="rounded=1;whiteSpace=wrap;html=1;strokeColor=#56517e;strokeWidth=2;fillColor=#d0cee2;labelBackgroundColor=none;align=center;verticalAlign=bottom;" vertex="1" parent="WIyWlLk6GJQsqaUBKTNV-1">
                    <mxGeometry x="650" y="150" width="120" height="40" as="geometry"/>
                </mxCell>
                <mxCell id="19" value="" style="endArrow=classic;html=1;rounded=0;strokeWidth=2;endSize=4;exitX=0.5;exitY=1;exitDx=0;exitDy=0;entryX=0.773;entryY=0.279;entryDx=0;entryDy=0;entryPerimeter=0;" edge="1" parent="WIyWlLk6GJQsqaUBKTNV-1" source="18" target="TBOGh352oyX1296FKRRM-12">
                    <mxGeometry width="50" height="50" relative="1" as="geometry">
                        <mxPoint x="627.0000000000001" y="206.99999999999991" as="sourcePoint"/>
                        <mxPoint x="710" y="230" as="targetPoint"/>
                        <Array as="points"/>
                    </mxGeometry>
                </mxCell>
                <mxCell id="20" value="" style="endArrow=classic;html=1;rounded=0;strokeWidth=2;endSize=4;exitX=0;exitY=0.5;exitDx=0;exitDy=0;exitPerimeter=0;" edge="1" parent="WIyWlLk6GJQsqaUBKTNV-1" source="TBOGh352oyX1296FKRRM-16">
                    <mxGeometry width="50" height="50" relative="1" as="geometry">
                        <mxPoint x="505" y="549.75" as="sourcePoint"/>
                        <mxPoint x="520" y="550" as="targetPoint"/>
                    </mxGeometry>
                </mxCell>
                <mxCell id="21" value="&lt;font color=&quot;#000000&quot;&gt;SI&lt;/font&gt;" style="text;strokeColor=#d6b656;align=center;fillColor=#fff2cc;html=1;verticalAlign=middle;whiteSpace=wrap;rounded=0;strokeWidth=2;" vertex="1" parent="WIyWlLk6GJQsqaUBKTNV-1">
                    <mxGeometry x="560" y="515" width="29" height="30" as="geometry"/>
                </mxCell>
                <mxCell id="22" value="" style="endArrow=classic;html=1;rounded=0;strokeWidth=2;endSize=4;exitX=0.5;exitY=1;exitDx=0;exitDy=0;exitPerimeter=0;entryX=0.438;entryY=0.04;entryDx=0;entryDy=0;entryPerimeter=0;" edge="1" parent="WIyWlLk6GJQsqaUBKTNV-1" source="TBOGh352oyX1296FKRRM-16" target="25">
                    <mxGeometry width="50" height="50" relative="1" as="geometry">
                        <mxPoint x="680" y="595" as="sourcePoint"/>
                        <mxPoint x="680" y="650" as="targetPoint"/>
                        <Array as="points"/>
                    </mxGeometry>
                </mxCell>
                <mxCell id="23" value="&lt;font color=&quot;#000000&quot;&gt;NO&lt;/font&gt;" style="text;strokeColor=#b85450;align=center;fillColor=#f8cecc;html=1;verticalAlign=middle;whiteSpace=wrap;rounded=0;strokeWidth=2;" vertex="1" parent="WIyWlLk6GJQsqaUBKTNV-1">
                    <mxGeometry x="353" y="640" width="30" height="30" as="geometry"/>
                </mxCell>
                <mxCell id="24" value="&lt;div style=&quot;&quot;&gt;&lt;font style=&quot;font-size: 10px;&quot; color=&quot;#000000&quot;&gt;Los aparto en un contador de links validos&lt;/font&gt;&lt;/div&gt;" style="rounded=1;whiteSpace=wrap;html=1;strokeColor=#56517e;strokeWidth=2;fillColor=#d0cee2;labelBackgroundColor=none;align=center;verticalAlign=bottom;" vertex="1" parent="WIyWlLk6GJQsqaUBKTNV-1">
                    <mxGeometry x="403.5" y="530" width="120" height="40" as="geometry"/>
                </mxCell>
                <mxCell id="25" value="&lt;div style=&quot;&quot;&gt;&lt;font style=&quot;font-size: 10px;&quot; color=&quot;#000000&quot;&gt;Los aparto en un contador de links invalidos&lt;/font&gt;&lt;/div&gt;" style="rounded=1;whiteSpace=wrap;html=1;strokeColor=#56517e;strokeWidth=2;fillColor=#d0cee2;labelBackgroundColor=none;align=center;verticalAlign=bottom;" vertex="1" parent="WIyWlLk6GJQsqaUBKTNV-1">
                    <mxGeometry x="627" y="655" width="120" height="40" as="geometry"/>
                </mxCell>
                <mxCell id="26" value="&lt;div&gt;&lt;font color=&quot;#000000&quot;&gt;Quedan links por analizar?&lt;/font&gt;&lt;/div&gt;" style="strokeWidth=2;html=1;shape=mxgraph.flowchart.decision;whiteSpace=wrap;fillColor=#D0CEE2;fontColor=#333333;strokeColor=#666666;" vertex="1" parent="WIyWlLk6GJQsqaUBKTNV-1">
                    <mxGeometry x="403.5" y="630" width="120" height="90" as="geometry"/>
                </mxCell>
                <mxCell id="27" value="" style="endArrow=classic;html=1;rounded=0;strokeWidth=2;endSize=4;exitX=0.5;exitY=0.996;exitDx=0;exitDy=0;exitPerimeter=0;" edge="1" parent="WIyWlLk6GJQsqaUBKTNV-1">
                    <mxGeometry width="50" height="50" relative="1" as="geometry">
                        <mxPoint x="463" y="570.0039999999999" as="sourcePoint"/>
                        <mxPoint x="464" y="630" as="targetPoint"/>
                        <Array as="points"/>
                    </mxGeometry>
                </mxCell>
                <mxCell id="30" value="" style="endArrow=classic;html=1;rounded=0;strokeWidth=2;endSize=4;exitX=0;exitY=0.5;exitDx=0;exitDy=0;exitPerimeter=0;" edge="1" parent="WIyWlLk6GJQsqaUBKTNV-1">
                    <mxGeometry width="50" height="50" relative="1" as="geometry">
                        <mxPoint x="630.5" y="674.5" as="sourcePoint"/>
                        <mxPoint x="523.5" y="674.5" as="targetPoint"/>
                    </mxGeometry>
                </mxCell>
                <mxCell id="32" value="" style="endArrow=classic;html=1;rounded=0;strokeWidth=2;endSize=4;exitX=0.5;exitY=1;exitDx=0;exitDy=0;exitPerimeter=0;" edge="1" parent="WIyWlLk6GJQsqaUBKTNV-1">
                    <mxGeometry width="50" height="50" relative="1" as="geometry">
                        <mxPoint x="461.5" y="720" as="sourcePoint"/>
                        <mxPoint x="800" y="760" as="targetPoint"/>
                        <Array as="points">
                            <mxPoint x="460" y="760"/>
                        </Array>
                    </mxGeometry>
                </mxCell>
                <mxCell id="36" value="&lt;font color=&quot;#000000&quot;&gt;SI&lt;/font&gt;" style="text;strokeColor=#d6b656;align=center;fillColor=#fff2cc;html=1;verticalAlign=middle;whiteSpace=wrap;rounded=0;strokeWidth=2;" vertex="1" parent="WIyWlLk6GJQsqaUBKTNV-1">
                    <mxGeometry x="468.5" y="720" width="29" height="30" as="geometry"/>
                </mxCell>
                <mxCell id="38" value="" style="endArrow=classic;html=1;rounded=0;strokeWidth=2;endSize=4;exitX=0;exitY=0.5;exitDx=0;exitDy=0;exitPerimeter=0;" edge="1" parent="WIyWlLk6GJQsqaUBKTNV-1">
                    <mxGeometry width="50" height="50" relative="1" as="geometry">
                        <mxPoint x="403.5" y="674.5" as="sourcePoint"/>
                        <mxPoint x="320" y="675" as="targetPoint"/>
                    </mxGeometry>
                </mxCell>
                <mxCell id="39" value="&lt;font color=&quot;#000000&quot;&gt;Fin&lt;/font&gt;" style="rounded=1;whiteSpace=wrap;html=1;absoluteArcSize=1;arcSize=14;strokeWidth=2;fillColor=#cce5ff;strokeColor=#36393d;" vertex="1" parent="WIyWlLk6GJQsqaUBKTNV-1">
                    <mxGeometry x="220" y="645" width="100" height="60" as="geometry"/>
                </mxCell>
            </root>
        </mxGraphModel>
    </diagram>
</mxfile>